<svg xmlns="http://www.w3.org/2000/svg" viewBox="0 0 256 256" fill="#E87D84"><path d="M208,88v24H69.77a8,8,0,0,0-7.59,5.47L32,208V64a8,8,0,0,1,8-8H93.33a8,8,0,0,1,4.8,1.6L128,80h72A8,8,0,0,1,208,88Z" opacity="0.30"/><path d="M245,110.64A16,16,0,0,0,232,104H216V88a16,16,0,0,0-16-16H130.67L102.94,51.2a16.14,16.14,0,0,0-9.6-3.2H40A16,16,0,0,0,24,64V208a8,8,0,0,0,8,8H211.1a8,8,0,0,0,7.59-5.47l28.49-85.47A16.05,16.05,0,0,0,245,110.64ZM93.34,64,123.2,86.4A8,8,0,0,0,128,88h72v16H69.77a16,16,0,0,0-15.18,10.94L40,158.7V64Zm112,136H43.1l26.67-80H232Z"/><g transform="translate(106.36,128.36) scale(0.255)"><path d="M225.6,62.64l-88-48.17a19.91,19.91,0,0,0-19.2,0l-88,48.17A20,20,0,0,0,20,80.19v95.62a20,20,0,0,0,10.4,17.55l88,48.17a19.89,19.89,0,0,0,19.2,0l88-48.17A20,20,0,0,0,236,175.81V80.19A20,20,0,0,0,225.6,62.64ZM128,36.57,200,76,178.57,87.73l-72-39.42Zm0,78.83L56,76,81.56,62l72,39.41ZM44,96.79l72,39.4v76.67L44,173.44Zm96,116.07V136.19l24-13.13V152a12,12,0,0,0,24,0V109.92l24-13.13v76.65Z"/></g></svg>